<svg version="1.1" id="Layer_1" xmlns="http://www.w3.org/2000/svg" xmlns:xlink="http://www.w3.org/1999/xlink" x="0px" y="0px"
	 width="100%" viewBox="0 0 265 237" enable-background="new 0 0 265 237" xml:space="preserve">
<path fill="#010101" opacity="1.000000" stroke="none" 
	d="
M266.000000,91.000000 
	C266.000000,140.333328 266.000000,189.166672 266.000000,238.000000 
	C177.666672,238.000000 89.333336,238.000000 1.000000,238.000000 
	C1.000000,159.000000 1.000000,80.000000 1.000000,1.000000 
	C89.333336,1.000000 177.666672,1.000000 266.000000,1.000000 
	C266.000000,30.833334 266.000000,60.666668 266.000000,91.000000 
M75.000305,37.999390 
	C75.000305,37.999390 75.009789,38.015270 74.360626,37.982975 
	C73.587051,38.664513 72.813469,39.346054 72.001541,39.998444 
	C72.001541,39.998444 72.025635,40.039845 71.349953,40.127846 
	C67.901009,43.419113 64.452072,46.710377 60.445892,50.259731 
	C59.992058,50.911625 59.538227,51.563519 58.461460,52.323555 
	C57.679363,53.303352 56.897266,54.283146 55.495853,55.398777 
	C54.651451,56.592564 53.807049,57.786350 52.488464,59.161873 
	C52.329651,59.448948 52.170837,59.736027 51.368935,60.230095 
	C42.424175,72.913780 36.151722,86.756287 33.045979,102.686859 
	C33.035568,103.125435 33.025158,103.564003 32.502758,104.614304 
	C32.337536,113.408974 32.172314,122.203651 31.940771,131.789169 
	C32.036583,132.840408 32.132397,133.891647 32.095383,135.751434 
	C32.390388,137.361298 32.473412,139.046600 33.015156,140.568634 
	C36.280209,149.741852 39.650360,158.877670 43.109287,168.667114 
	C43.801819,169.752014 44.494354,170.836899 45.167038,172.552429 
	C45.798920,173.336472 46.430805,174.120499 47.004856,174.972473 
	C47.004856,174.972473 47.090168,174.946365 47.108803,175.646194 
	C50.080048,179.416412 53.051292,183.186630 56.173798,187.438675 
	C56.437653,187.631790 56.701511,187.824905 57.034180,188.652618 
	C58.070488,189.651077 59.106800,190.649536 60.407993,192.231339 
	C61.040642,192.778702 61.673294,193.326065 62.419449,194.499023 
	C63.609951,195.336929 64.800453,196.174835 66.000000,197.000000 
	C66.000000,197.000000 65.987267,197.009674 66.170219,197.659775 
	C70.449318,200.769409 74.728416,203.879028 79.000000,207.000000 
	C79.000000,207.000000 79.011650,206.991501 79.207428,207.601898 
	C80.152351,208.037338 81.097275,208.472778 82.409470,209.350159 
	C82.931953,209.571030 83.454437,209.791901 84.259552,210.637817 
	C93.862358,214.333466 103.465164,218.029114 113.700851,221.907532 
	C114.138214,221.917038 114.575577,221.926529 115.506294,222.382217 
	C116.360130,222.496674 117.213959,222.611130 118.792496,222.899078 
	C119.534958,222.899155 120.277428,222.899231 121.658043,223.279602 
	C123.127594,223.429764 124.597145,223.579926 126.938751,223.884506 
	C129.302734,223.871445 131.666718,223.858398 134.682236,224.182343 
	C137.110397,224.075043 139.538544,223.967743 142.809143,223.983536 
	C145.526138,223.593567 148.243149,223.203583 151.739624,222.967773 
	C156.852585,220.992081 161.965530,219.016388 167.781219,216.928864 
	C169.522934,216.309265 171.264648,215.689667 173.310898,215.672760 
	C182.564346,213.973816 189.765732,208.449570 197.656158,202.796677 
	C200.500778,200.479904 203.113831,197.754593 206.260666,195.971008 
	C208.949509,194.447021 209.728210,192.782486 209.703033,189.901825 
	C212.435684,187.171310 215.168335,184.440781 218.490906,181.403427 
	C219.406525,180.530914 220.645889,179.822952 221.186234,178.759735 
	C225.292847,170.679291 229.890259,162.770752 233.130966,154.345627 
	C238.226868,141.097488 240.278671,127.252396 237.970810,112.368866 
	C237.912537,111.936104 237.854248,111.503334 238.027069,110.250633 
	C237.503891,107.037155 238.543182,103.148445 232.861755,103.186203 
	C210.112183,103.337456 187.359344,103.022186 164.610229,103.200691 
	C157.784729,103.254242 151.234741,105.072083 145.550797,110.165985 
	C145.247345,110.331802 145.045303,110.580132 144.306793,111.018074 
	C143.532013,112.007553 142.757233,112.997032 142.000000,114.000000 
	C142.000000,114.000000 141.985809,113.982758 141.330795,114.182556 
	C139.296249,118.814720 137.261719,123.446892 135.058182,128.795944 
	C135.041229,129.531006 135.024261,130.266068 134.586182,131.643631 
	C135.081406,134.029999 135.576614,136.416351 136.796326,138.955627 
	C137.534866,138.944290 138.273392,138.932938 139.755157,139.223923 
	C144.497955,139.121429 149.240753,139.018921 154.918152,139.017502 
	C163.616470,138.982895 172.314804,138.948288 181.750534,139.224243 
	C185.530533,139.395035 189.310532,139.565811 193.733978,139.944595 
	C194.780365,140.350510 195.826767,140.756439 196.785080,141.890274 
	C194.890045,146.286575 192.995026,150.682892 190.718994,155.602676 
	C190.152481,156.738861 189.585953,157.875061 188.998764,159.000748 
	C188.998764,159.000748 189.012726,159.020493 188.396255,159.222015 
	C187.601410,160.482956 186.806580,161.743896 185.510193,163.179123 
	C185.354660,163.489609 185.199112,163.800079 184.396439,164.274338 
	C178.439804,171.387299 171.319855,177.034531 162.836670,180.796921 
	C158.337479,182.792374 153.633759,184.326721 148.350510,185.934174 
	C147.910645,186.040710 147.470795,186.147247 146.339340,186.063004 
	C145.234421,186.401062 144.129501,186.739120 142.279205,186.923615 
	C141.529312,187.028625 140.779419,187.133621 139.123413,187.030563 
	C133.738693,186.767563 128.353973,186.504547 122.337578,185.994064 
	C121.890076,186.001785 121.442574,186.009506 120.530067,185.454971 
	C111.687851,181.301437 102.845642,177.147919 94.005516,172.999222 
	C94.005516,172.999222 94.015205,172.989914 93.836006,172.359024 
	C92.179558,171.034973 90.523109,169.710922 88.640778,167.748260 
	C87.071083,166.174850 85.501396,164.601456 83.927307,162.428421 
	C83.424088,161.830978 82.920860,161.233551 82.094582,160.799438 
	C82.094582,160.799438 82.394150,160.596207 82.154968,159.952118 
	C80.087448,156.670792 78.019936,153.389481 75.923660,149.494537 
	C75.592979,149.005508 75.262306,148.516479 74.979927,147.296555 
	C73.911308,144.942322 72.842690,142.588074 71.809311,139.605743 
	C71.500969,139.076782 71.192627,138.547806 70.986671,137.196106 
	C70.278244,133.811142 69.569817,130.426178 69.015686,126.124214 
	C68.952431,122.401810 68.889168,118.679398 69.155167,114.275864 
	C71.051064,102.055855 75.678513,90.966080 82.999710,80.993698 
	C82.999710,80.993698 82.963112,80.936424 83.600166,80.749199 
	C85.057022,78.827019 86.513885,76.904831 88.000183,75.000999 
	C88.000183,75.000999 87.982971,74.971016 88.651459,74.848709 
	C89.666451,73.989189 90.683884,73.132538 91.696068,72.269730 
	C107.722572,58.608334 126.117973,53.628574 146.911804,56.860897 
	C157.381287,58.488338 166.129272,63.822987 175.000977,69.001686 
	C175.000977,69.001686 175.024429,68.984879 175.237640,69.596909 
	C176.497650,70.383774 177.757675,71.170639 179.316757,72.548431 
	C180.890640,73.299072 182.464523,74.049721 184.433044,75.241539 
	C184.993942,75.321442 185.554825,75.401344 186.927536,75.769287 
	C189.922913,75.391273 192.918289,75.013268 196.538406,74.760452 
	C197.359818,74.174316 198.181244,73.588181 199.000000,73.000000 
	C199.000000,73.000000 199.001801,73.002640 199.667969,73.016266 
	C200.754395,71.995003 201.840820,70.973732 202.998489,69.990555 
	C202.998489,69.990555 202.951187,69.925049 203.617447,69.774422 
	C205.335648,65.829445 207.053848,61.884468 208.954956,57.319042 
	C208.915253,56.893414 208.875549,56.467781 209.096588,55.498840 
	C209.008957,55.318077 208.921341,55.137314 208.969055,54.324596 
	C208.889862,53.905258 208.810684,53.485920 208.877731,52.355301 
	C206.802368,49.426250 204.726990,46.497200 202.529480,43.471668 
	C202.529480,43.471668 202.408646,43.373539 202.084656,42.822979 
	C190.130356,33.179733 177.034760,25.769993 161.303253,22.080301 
	C160.865753,22.068747 160.428268,22.057192 159.620392,21.576345 
	C159.055222,21.486389 158.490067,21.396433 157.291580,21.116358 
	C156.852692,21.121305 156.413788,21.126253 155.326538,20.701607 
	C151.528366,20.227016 147.730179,19.752424 143.064651,19.161295 
	C140.731628,19.199259 138.398621,19.237223 135.229721,19.046991 
	C133.796539,19.126806 132.363373,19.206623 130.163101,19.169319 
	C129.131500,19.208256 128.099884,19.247194 126.212631,19.055223 
	C110.733994,20.373846 96.184799,24.572792 83.000000,33.000000 
	C83.000000,33.000000 82.999344,32.999672 82.317024,33.020229 
	C80.896271,34.026073 79.475525,35.031918 78.004951,35.997990 
	C78.004951,35.997990 78.034119,36.054539 77.393112,36.060513 
	C76.600647,36.710819 75.808189,37.361126 75.000305,37.999390 
z"/>
<path fill="#FCFCFA" opacity="1.000000" stroke="none" 
	d="
M62.305943,193.873428 
	C61.673294,193.326065 61.040642,192.778702 60.301277,191.594727 
	C59.118164,189.978088 58.041763,188.998062 56.965370,188.018021 
	C56.701511,187.824905 56.437653,187.631790 56.132370,186.828583 
	C53.090687,182.461105 50.090427,178.703735 47.090168,174.946365 
	C47.090168,174.946365 47.004856,174.972473 47.077320,174.602234 
	C46.495487,173.461945 45.841190,172.691864 45.186890,171.921799 
	C44.494354,170.836899 43.801819,169.752014 43.092567,167.959137 
	C42.909451,166.615204 42.779976,165.966843 42.571098,165.345169 
	C39.497662,156.197906 34.339638,147.647583 34.754356,137.478210 
	C34.787365,136.668777 33.110477,135.789627 32.228210,134.942886 
	C32.132397,133.891647 32.036583,132.840408 32.249046,131.109070 
	C32.678867,127.951530 32.800407,125.474106 33.286743,122.960709 
	C37.651180,119.732216 37.336121,111.831459 33.162743,107.683975 
	C33.510632,106.236412 33.752716,105.119087 34.342201,103.947601 
	C35.941551,102.273323 37.875904,100.796608 38.254898,98.993050 
	C38.639362,97.163483 37.487869,95.011147 37.038269,92.625549 
	C40.825470,84.159050 44.584961,76.067879 48.340618,67.974915 
	C49.569565,65.326698 50.788509,62.673840 52.012024,60.023102 
	C52.170837,59.736027 52.329651,59.448948 53.072472,59.075630 
	C54.476048,57.747238 55.295609,56.505089 56.115170,55.262939 
	C56.897266,54.283146 57.679363,53.303352 59.039757,52.510002 
	C61.365356,52.484951 63.253769,52.621407 64.827934,51.983002 
	C67.393784,50.942425 70.230980,49.625454 67.979286,45.654030 
	C69.443771,43.588188 70.734703,41.814018 72.025635,40.039845 
	C72.025635,40.039845 72.001541,39.998444 72.371155,40.056610 
	C73.497108,39.414940 74.253448,38.715103 75.009789,38.015266 
	C75.009789,38.015270 75.000305,37.999390 75.359421,38.068909 
	C76.490395,37.443798 77.262253,36.749168 78.034119,36.054539 
	C78.034119,36.054539 78.004951,35.997990 78.392334,36.070431 
	C80.186256,35.095139 81.592796,34.047405 82.999344,32.999672 
	C82.999344,32.999672 83.000000,33.000000 83.375809,33.056152 
	C84.761436,33.036259 85.771248,32.960213 87.230957,32.922527 
	C91.514252,32.636616 96.502586,34.434326 97.207352,27.654768 
	C105.249763,23.481531 113.708267,22.659166 122.218628,21.868170 
	C123.900642,21.711834 125.455032,20.182364 127.068283,19.286133 
	C128.099884,19.247194 129.131500,19.208256 130.602936,19.580746 
	C132.717041,19.753178 134.391327,19.514181 136.065598,19.275185 
	C138.398621,19.237223 140.731628,19.199259 143.604431,19.574919 
	C148.087769,20.369429 152.031342,20.750315 155.974899,21.131201 
	C156.413788,21.126253 156.852692,21.121305 157.624939,21.490808 
	C158.635803,21.925385 159.313278,21.985512 159.990768,22.045639 
	C160.428268,22.057192 160.865753,22.068747 161.668503,22.528498 
	C164.717850,24.252285 167.401947,25.527874 170.090164,27.181814 
	C173.159134,31.402439 175.932236,32.240528 178.361588,29.989204 
	C183.419342,33.151497 187.998505,36.476761 192.858551,39.322250 
	C195.818069,41.055008 199.210617,42.048168 202.408646,43.373539 
	C202.408646,43.373539 202.529480,43.471668 202.418259,43.856747 
	C204.448517,47.183411 206.590012,50.125000 208.731506,53.066582 
	C208.810684,53.485920 208.889862,53.905258 208.642990,54.628231 
	C208.105927,55.190857 207.894928,55.449848 207.683945,55.708839 
	C208.067917,55.819946 208.451874,55.931049 208.835846,56.042152 
	C208.875549,56.467781 208.915253,56.893414 208.523102,57.620537 
	C207.350220,58.565868 206.187729,59.085983 205.954941,59.879005 
	C205.453659,61.586689 205.642410,63.495522 205.151093,65.207939 
	C204.678497,66.855110 203.704742,68.358490 202.951187,69.925049 
	C202.951187,69.925049 202.998489,69.990555 202.603088,69.934464 
	C201.139053,70.919792 200.070419,71.961212 199.001801,73.002640 
	C199.001801,73.002640 199.000000,73.000000 198.665955,72.925064 
	C197.525818,73.445175 196.719742,74.040215 195.913666,74.635254 
	C192.918289,75.013268 189.922913,75.391273 186.517166,75.354172 
	C185.417328,74.892830 184.727875,74.846588 184.038406,74.800354 
	C182.464523,74.049721 180.890640,73.299072 179.149506,71.897263 
	C177.662994,70.492363 176.343704,69.738617 175.024429,68.984879 
	C175.024429,68.984879 175.000977,69.001686 174.991180,68.639191 
	C164.733246,58.407173 151.727798,55.188454 138.262405,54.147869 
	C123.743401,53.025871 110.304131,57.645416 98.057587,65.178360 
	C94.164513,67.573029 91.311768,71.658989 87.982971,74.971016 
	C87.982971,74.971016 88.000183,75.000999 87.632500,74.990738 
	C85.830917,76.965797 84.397018,78.951111 82.963112,80.936424 
	C82.963112,80.936424 82.999710,80.993698 82.621597,80.997765 
	C75.515930,85.678215 73.443924,93.193939 71.114891,100.298470 
	C69.594490,104.936348 69.538101,110.054161 68.825912,114.956993 
	C68.889168,118.679398 68.952431,122.401810 68.664612,126.852768 
	C69.170456,131.060501 70.027374,134.539673 70.884293,138.018845 
	C71.192627,138.547806 71.500969,139.076782 71.583473,140.288284 
	C72.548965,143.323029 73.740295,145.675247 74.931633,148.027451 
	C75.262306,148.516479 75.592979,149.005508 75.891586,150.174316 
	C77.609879,154.388458 77.421989,159.222916 82.394150,160.596207 
	C82.394150,160.596207 82.094582,160.799438 82.113358,161.052032 
	C82.731987,161.879089 83.331848,162.453568 83.931709,163.028046 
	C85.501396,164.601456 87.071083,166.174850 88.742218,168.419525 
	C90.567513,170.390488 92.291359,171.690201 94.015205,172.989914 
	C94.015205,172.989914 94.005516,172.999222 94.009415,173.349457 
	C101.062935,181.160400 110.329788,184.275208 119.868736,186.825623 
	C120.151886,186.901337 120.615562,186.301880 120.995071,186.017212 
	C121.442574,186.009506 121.890076,186.001785 122.747826,186.484467 
	C127.773529,187.649811 132.377304,188.442825 137.014175,188.901306 
	C137.955292,188.994370 139.021164,187.825668 140.029526,187.238617 
	C140.779419,187.133621 141.529312,187.028625 142.852081,187.267517 
	C144.626968,187.158859 145.828949,186.706314 147.030930,186.253784 
	C147.470795,186.147247 147.910645,186.040710 148.901703,186.282379 
	C160.995834,184.809875 170.901703,179.530090 179.503433,171.852234 
	C181.813263,169.790512 183.221466,166.718674 185.043564,164.110550 
	C185.199112,163.800079 185.354660,163.489609 186.119019,163.076584 
	C187.489487,161.656189 188.251099,160.338333 189.012726,159.020493 
	C189.012726,159.020493 188.998764,159.000748 189.397400,158.988922 
	C191.035629,158.543045 192.275223,158.109009 193.733002,157.929428 
	C194.943039,160.457336 195.934875,162.730759 196.889191,165.380325 
	C196.878555,166.510406 196.905457,167.264343 196.661362,168.300980 
	C196.584717,171.386261 196.779068,174.188843 197.001663,177.408997 
	C196.442429,181.128189 195.854950,184.429810 194.955139,187.831726 
	C193.813889,189.641998 192.984955,191.351944 191.858124,193.167648 
	C191.420105,193.868927 191.279999,194.464447 191.094391,195.061798 
	C191.048904,195.063629 191.075104,195.150818 190.770264,195.252411 
	C190.034454,196.263458 189.603485,197.172897 188.869202,198.229004 
	C187.084427,200.331818 185.602982,202.287994 183.788177,204.272125 
	C181.182724,206.790985 178.910629,209.281891 176.338989,211.888458 
	C175.028427,213.026108 174.017395,214.048096 173.006378,215.070068 
	C171.264648,215.689667 169.522934,216.309265 167.034088,216.962311 
	C161.178024,218.935028 156.069092,220.874313 150.960144,222.813599 
	C148.243149,223.203583 145.526138,223.593567 142.120422,223.648804 
	C138.964706,223.491165 136.497696,223.668259 134.030701,223.845352 
	C131.666718,223.858398 129.302734,223.871445 126.416855,223.478745 
	C124.269943,223.015091 122.644913,222.957199 121.019890,222.899292 
	C120.277428,222.899231 119.534958,222.899155 118.376328,222.510681 
	C116.977760,222.060211 115.995346,221.998123 115.012939,221.936035 
	C114.575577,221.926529 114.138214,221.917038 113.299385,221.475159 
	C110.012886,219.934006 107.130592,218.818054 104.242271,217.717911 
	C97.488686,215.145508 90.732224,212.580673 83.976921,210.012772 
	C83.454437,209.791901 82.931953,209.571030 82.177429,208.788010 
	C80.967476,207.814407 79.989563,207.402954 79.011650,206.991501 
	C79.011650,206.991501 79.000000,207.000000 79.005638,206.645706 
	C74.669937,203.197495 70.328606,200.103592 65.987267,197.009674 
	C65.987267,197.009674 66.000000,197.000000 66.001442,196.663330 
	C64.770569,195.508926 63.538254,194.691177 62.305943,193.873428 
z"/>
<path fill="#FDFDFC" opacity="1.000000" stroke="none" 
	d="
M181.013123,138.913696 
	C172.314804,138.948288 163.616470,138.982895 154.135376,138.708282 
	C148.572372,138.573242 143.792160,138.747406 139.011932,138.921570 
	C138.273392,138.932938 137.534866,138.944290 136.419479,138.464294 
	C135.697525,135.649002 135.352417,133.325073 135.007309,131.001129 
	C135.024261,130.266068 135.041229,129.531006 135.474792,128.359604 
	C137.922882,123.276428 139.954346,118.629593 141.985809,113.982758 
	C141.985809,113.982758 142.000000,114.000000 142.332489,113.986176 
	C143.424850,112.951881 144.184753,111.931419 144.944656,110.910965 
	C145.045303,110.580132 145.247345,110.331802 146.160950,110.136978 
	C155.216248,105.614967 164.212814,104.572769 173.709091,104.778152 
	C192.652237,105.187836 211.609619,104.934044 230.561081,104.971558 
	C232.184006,104.974770 233.806656,105.106926 234.914169,105.156242 
	C236.043655,107.474289 236.919815,109.272423 237.795959,111.070564 
	C237.854248,111.503334 237.912537,111.936104 237.654205,113.000046 
	C237.257263,115.782021 237.087997,117.933754 237.110855,120.083443 
	C237.268036,134.871002 234.941711,149.155914 228.243240,162.479431 
	C224.975113,168.979858 221.359390,175.305511 217.900986,181.710266 
	C215.168335,184.440781 212.435684,187.171310 209.446655,189.614288 
	C208.988342,188.877884 208.786392,188.428986 208.810364,187.669128 
	C209.630981,185.238480 210.225708,183.118805 210.943924,180.750244 
	C211.270935,180.003510 211.474457,179.505646 211.848892,178.656967 
	C212.300552,176.534439 212.581299,174.762711 212.981445,172.539246 
	C212.559860,166.542892 212.018906,160.998306 211.612000,155.131973 
	C211.256622,154.168289 210.767197,153.526352 210.092789,152.623306 
	C209.224716,151.279587 208.541626,150.196991 207.863983,148.790039 
	C207.251373,147.972015 206.633286,147.478333 205.780975,146.792358 
	C204.687897,145.742966 203.829041,144.885895 202.915298,143.687576 
	C201.239075,142.565872 199.617737,141.785431 197.703995,140.961548 
	C197.232117,140.999542 197.052643,141.080963 196.873154,141.162369 
	C195.826767,140.756439 194.780365,140.350510 193.299561,139.469910 
	C188.914474,138.968063 184.963791,138.940872 181.013123,138.913696 
z"/>
<path fill="#7B7B7B" opacity="1.000000" stroke="none" 
	d="
M207.858536,149.114395 
	C208.541626,150.196991 209.224716,151.279587 210.041534,152.927109 
	C210.609482,154.145935 211.043716,154.799835 211.477951,155.453720 
	C212.018906,160.998306 212.559860,166.542892 212.629669,172.547867 
	C208.199203,174.703796 208.279861,176.722931 211.677979,179.007782 
	C211.474457,179.505646 211.270935,180.003510 210.592682,180.702957 
	C206.052826,179.268585 201.987701,177.632645 197.880768,175.597900 
	C197.915771,174.134567 197.992599,173.070023 198.436249,171.954529 
	C202.361298,168.337097 201.939148,166.784912 196.926727,165.004196 
	C195.934875,162.730759 194.943039,160.457336 193.662140,157.615448 
	C192.615402,156.391052 191.857697,155.735138 191.100006,155.079208 
	C192.995026,150.682892 194.890045,146.286575 196.829117,141.526321 
	C197.052643,141.080963 197.232117,140.999542 197.855194,141.257050 
	C199.855927,142.406937 201.413055,143.217880 202.970184,144.028824 
	C203.829041,144.885895 204.687897,145.742966 205.807159,147.103806 
	C206.664551,148.109833 207.261536,148.612122 207.858536,149.114395 
z"/>
<path fill="#BABABA" opacity="1.000000" stroke="none" 
	d="
M237.911530,110.660599 
	C236.919815,109.272423 236.043655,107.474289 234.914169,105.156242 
	C233.806656,105.106926 232.184006,104.974770 230.561081,104.971558 
	C211.609619,104.934044 192.652237,105.187836 173.709091,104.778152 
	C164.212814,104.572769 155.216248,105.614967 146.393158,110.058670 
	C151.234741,105.072083 157.784729,103.254242 164.610229,103.200691 
	C187.359344,103.022186 210.112183,103.337456 232.861755,103.186203 
	C238.543182,103.148445 237.503891,107.037155 237.911530,110.660599 
z"/>
<path fill="#DEDEDC" opacity="1.000000" stroke="none" 
	d="
M88.317215,74.909866 
	C91.311768,71.658989 94.164513,67.573029 98.057587,65.178360 
	C110.304131,57.645416 123.743401,53.025871 138.262405,54.147869 
	C151.727798,55.188454 164.733246,58.407173 174.997498,68.626648 
	C166.129272,63.822987 157.381287,58.488338 146.911804,56.860897 
	C126.117973,53.628574 107.722572,58.608334 91.696068,72.269730 
	C90.683884,73.132538 89.666451,73.989189 88.317215,74.909866 
z"/>
<path fill="#848485" opacity="1.000000" stroke="none" 
	d="
M208.584457,187.980103 
	C208.786392,188.428986 208.988342,188.877884 209.095383,189.684204 
	C209.728210,192.782486 208.949509,194.447021 206.260666,195.971008 
	C203.113831,197.754593 200.500778,200.479904 197.132538,202.618286 
	C194.738144,200.965347 192.867386,199.490799 191.000610,197.657288 
	C191.028107,196.582504 191.051605,195.866653 191.075104,195.150818 
	C191.075104,195.150818 191.048904,195.063629 191.366394,195.013763 
	C191.841248,194.329895 191.998627,193.695892 192.156006,193.061905 
	C192.984955,191.351944 193.813889,189.641998 195.332367,187.977142 
	C197.020676,188.851639 198.028183,189.670746 199.016647,190.512268 
	C203.094437,193.983780 204.466080,193.731445 207.124023,189.115067 
	C207.408829,188.620438 208.088150,188.352966 208.584457,187.980103 
z"/>
<path fill="#BABABA" opacity="1.000000" stroke="none" 
	d="
M218.195953,181.556854 
	C221.359390,175.305511 224.975113,168.979858 228.243240,162.479431 
	C234.941711,149.155914 237.268036,134.871002 237.110855,120.083443 
	C237.087997,117.933754 237.257263,115.782021 237.614853,113.326149 
	C240.278671,127.252396 238.226868,141.097488 233.130966,154.345627 
	C229.890259,162.770752 225.292847,170.679291 221.186234,178.759735 
	C220.645889,179.822952 219.406525,180.530914 218.195953,181.556854 
z"/>
<path fill="#6C6B6D" opacity="1.000000" stroke="none" 
	d="
M190.996613,198.016266 
	C192.867386,199.490799 194.738144,200.965347 196.799942,202.704834 
	C189.765732,208.449570 182.564346,213.973816 173.158630,215.371429 
	C174.017395,214.048096 175.028427,213.026108 176.762573,211.964951 
	C183.363586,212.532120 183.307983,208.012741 184.121521,204.244171 
	C185.602982,202.287994 187.084427,200.331818 189.173431,198.235901 
	C190.186172,198.069534 190.591400,198.042908 190.996613,198.016266 
z"/>
<path fill="#CACAC8" opacity="1.000000" stroke="none" 
	d="
M170.086044,26.803463 
	C167.401947,25.527874 164.717850,24.252285 161.979370,22.639381 
	C177.034760,25.769993 190.130356,33.179733 202.246643,43.098259 
	C199.210617,42.048168 195.818069,41.055008 192.858551,39.322250 
	C187.998505,36.476761 183.419342,33.151497 178.051392,29.828941 
	C174.949371,28.687384 172.517700,27.745422 170.086044,26.803463 
z"/>
<path fill="#CACAC8" opacity="1.000000" stroke="none" 
	d="
M86.781067,32.884167 
	C85.771248,32.960213 84.761436,33.036259 83.375702,33.055824 
	C96.184799,24.572792 110.733994,20.373846 126.640457,19.170677 
	C125.455032,20.182364 123.900642,21.711834 122.218628,21.868170 
	C113.708267,22.659166 105.249763,23.481531 96.847534,27.712563 
	C93.088150,29.644958 89.934608,31.264563 86.781067,32.884167 
z"/>
<path fill="#CACAC8" opacity="1.000000" stroke="none" 
	d="
M51.690483,60.126602 
	C50.788509,62.673840 49.569565,65.326698 48.340618,67.974915 
	C44.584961,76.067879 40.825470,84.159050 36.965385,92.998993 
	C35.653103,96.515701 34.442902,99.284348 33.232700,102.052994 
	C36.151722,86.756287 42.424175,72.913780 51.690483,60.126602 
z"/>
<path fill="#E1E2E1" opacity="1.000000" stroke="none" 
	d="
M184.720001,164.192444 
	C183.221466,166.718674 181.813263,169.790512 179.503433,171.852234 
	C170.901703,179.530090 160.995834,184.809875 149.237640,186.349915 
	C153.633759,184.326721 158.337479,182.792374 162.836670,180.796921 
	C171.319855,177.034531 178.439804,171.387299 184.720001,164.192444 
z"/>
<path fill="#DEDEDC" opacity="1.000000" stroke="none" 
	d="
M68.990540,114.616425 
	C69.538101,110.054161 69.594490,104.936348 71.114891,100.298470 
	C73.443924,93.193939 75.515930,85.678215 82.590721,80.983582 
	C75.678513,90.966080 71.051064,102.055855 68.990540,114.616425 
z"/>
<path fill="#CACAC8" opacity="1.000000" stroke="none" 
	d="
M32.161797,135.347168 
	C33.110477,135.789627 34.787365,136.668777 34.754356,137.478210 
	C34.339638,147.647583 39.497662,156.197906 42.571098,165.345169 
	C42.779976,165.966843 42.909451,166.615204 43.030594,167.638580 
	C39.650360,158.877670 36.280209,149.741852 33.015156,140.568634 
	C32.473412,139.046600 32.390388,137.361298 32.161797,135.347168 
z"/>
<path fill="#E1E2E1" opacity="1.000000" stroke="none" 
	d="
M120.762573,185.736084 
	C120.615562,186.301880 120.151886,186.901337 119.868736,186.825623 
	C110.329788,184.275208 101.062935,181.160400 94.008377,173.347046 
	C102.845642,177.147919 111.687851,181.301437 120.762573,185.736084 
z"/>
<path fill="#CACAC8" opacity="1.000000" stroke="none" 
	d="
M84.118240,210.325287 
	C90.732224,212.580673 97.488686,215.145508 104.242271,217.717911 
	C107.130592,218.818054 110.012886,219.934006 112.982948,221.383774 
	C103.465164,218.029114 93.862358,214.333466 84.118240,210.325287 
z"/>
<path fill="#CACAC8" opacity="1.000000" stroke="none" 
	d="
M33.994801,104.001755 
	C33.752716,105.119087 33.510632,106.236412 33.124210,108.147079 
	C32.960564,113.625832 32.941254,118.311256 32.921947,122.996681 
	C32.800407,125.474106 32.678867,127.951530 32.282207,130.713638 
	C32.172314,122.203651 32.337536,113.408974 33.003754,104.297295 
	C33.504753,103.980286 33.994801,104.001755 33.994801,104.001755 
z"/>
<path fill="#CACAC8" opacity="1.000000" stroke="none" 
	d="
M66.078743,197.334717 
	C70.328606,200.103592 74.669937,203.197495 79.009399,206.640030 
	C74.728416,203.879028 70.449318,200.769409 66.078743,197.334717 
z"/>
<path fill="#F9F9F5" opacity="1.000000" stroke="none" 
	d="
M67.805733,45.945702 
	C70.230980,49.625454 67.393784,50.942425 64.827934,51.983002 
	C63.253769,52.621407 61.365356,52.484951 59.351227,52.455933 
	C59.538227,51.563519 59.992058,50.911625 61.079945,50.167503 
	C63.744576,48.698750 65.775154,47.322224 67.805733,45.945702 
z"/>
<path fill="#E1E2E1" opacity="1.000000" stroke="none" 
	d="
M139.576477,187.134598 
	C139.021164,187.825668 137.955292,188.994370 137.014175,188.901306 
	C132.377304,188.442825 127.773529,187.649811 123.063660,186.608200 
	C128.353973,186.504547 133.738693,186.767563 139.576477,187.134598 
z"/>
<path fill="#CACAC8" opacity="1.000000" stroke="none" 
	d="
M47.099487,175.296280 
	C50.090427,178.703735 53.090687,182.461105 56.056740,186.587662 
	C53.051292,183.186630 50.080048,179.416412 47.099487,175.296280 
z"/>
<path fill="#BABABA" opacity="1.000000" stroke="none" 
	d="
M139.383545,139.072754 
	C143.792160,138.747406 148.572372,138.573242 153.668076,138.657745 
	C149.240753,139.018921 144.497955,139.121429 139.383545,139.072754 
z"/>
<path fill="#CACAC8" opacity="1.000000" stroke="none" 
	d="
M67.979286,45.654030 
	C65.775154,47.322224 63.744576,48.698750 61.358566,50.038460 
	C64.452072,46.710377 67.901009,43.419113 71.687790,40.083847 
	C70.734703,41.814018 69.443771,43.588188 67.979286,45.654030 
z"/>
<path fill="#F9FAF8" opacity="1.000000" stroke="none" 
	d="
M34.342201,103.947601 
	C33.994801,104.001755 33.504753,103.980286 33.259750,103.991432 
	C33.025158,103.564003 33.035568,103.125435 33.139339,102.369926 
	C34.442902,99.284348 35.653103,96.515701 36.936188,93.373611 
	C37.487869,95.011147 38.639362,97.163483 38.254898,98.993050 
	C37.875904,100.796608 35.941551,102.273323 34.342201,103.947601 
z"/>
<path fill="#BABABA" opacity="1.000000" stroke="none" 
	d="
M141.658295,114.082657 
	C139.954346,118.629593 137.922882,123.276428 135.559296,128.001160 
	C137.261719,123.446892 139.296249,118.814720 141.658295,114.082657 
z"/>
<path fill="#D3D2CF" opacity="1.000000" stroke="none" 
	d="
M151.349884,222.890686 
	C156.069092,220.874313 161.178024,218.935028 166.682739,217.018219 
	C161.965530,219.016388 156.852585,220.992081 151.349884,222.890686 
z"/>
<path fill="#CACAC8" opacity="1.000000" stroke="none" 
	d="
M203.284317,69.849731 
	C203.704742,68.358490 204.678497,66.855110 205.151093,65.207939 
	C205.642410,63.495522 205.453659,61.586689 205.954941,59.879005 
	C206.187729,59.085983 207.350220,58.565868 208.431656,57.930763 
	C207.053848,61.884468 205.335648,65.829445 203.284317,69.849731 
z"/>
<path fill="#CACAC8" opacity="1.000000" stroke="none" 
	d="
M208.804626,52.710945 
	C206.590012,50.125000 204.448517,47.183411 202.479324,43.904987 
	C204.726990,46.497200 206.802368,49.426250 208.804626,52.710945 
z"/>
<path fill="#BABABA" opacity="1.000000" stroke="none" 
	d="
M181.381836,139.068970 
	C184.963791,138.940872 188.914474,138.968063 192.977844,139.365906 
	C189.310532,139.565811 185.530533,139.395035 181.381836,139.068970 
z"/>
<path fill="#CACAC8" opacity="1.000000" stroke="none" 
	d="
M155.650726,20.916405 
	C152.031342,20.750315 148.087769,20.369429 144.038116,19.633188 
	C147.730179,19.752424 151.528366,20.227016 155.650726,20.916405 
z"/>
<path fill="#DEDEDC" opacity="1.000000" stroke="none" 
	d="
M82.274559,160.274170 
	C77.421989,159.222916 77.609879,154.388458 75.905960,150.481140 
	C78.019936,153.389481 80.087448,156.670792 82.274559,160.274170 
z"/>
<path fill="#DEDEDC" opacity="1.000000" stroke="none" 
	d="
M70.935486,137.607483 
	C70.027374,134.539673 69.170456,131.060501 68.587463,127.311264 
	C69.569817,130.426178 70.278244,133.811142 70.935486,137.607483 
z"/>
<path fill="#CACAC8" opacity="1.000000" stroke="none" 
	d="
M134.356476,224.013855 
	C136.497696,223.668259 138.964706,223.491165 141.699203,223.587250 
	C139.538544,223.967743 137.110397,224.075043 134.356476,224.013855 
z"/>
<path fill="#BABABA" opacity="1.000000" stroke="none" 
	d="
M134.796753,131.322388 
	C135.352417,133.325073 135.697525,135.649002 136.057236,138.387833 
	C135.576614,136.416351 135.081406,134.029999 134.796753,131.322388 
z"/>
<path fill="#DEDEDC" opacity="1.000000" stroke="none" 
	d="
M83.281639,80.842812 
	C84.397018,78.951111 85.830917,76.965797 87.617783,74.981567 
	C86.513885,76.904831 85.057022,78.827019 83.281639,80.842812 
z"/>
<path fill="#DEDEDC" opacity="1.000000" stroke="none" 
	d="
M74.955780,147.662003 
	C73.740295,145.675247 72.548965,143.323029 71.565857,140.602325 
	C72.842690,142.588074 73.911308,144.942322 74.955780,147.662003 
z"/>
<path fill="#DEDEDC" opacity="1.000000" stroke="none" 
	d="
M93.925606,172.674469 
	C92.291359,171.690201 90.567513,170.390488 88.855164,168.738831 
	C90.523109,169.710922 92.179558,171.034973 93.925606,172.674469 
z"/>
<path fill="#E1E2E1" opacity="1.000000" stroke="none" 
	d="
M190.909500,155.340942 
	C191.857697,155.735138 192.615402,156.391052 193.443954,157.360962 
	C192.275223,158.109009 191.035629,158.543045 189.407745,158.994171 
	C189.585953,157.875061 190.152481,156.738861 190.909500,155.340942 
z"/>
<path fill="#CACAC8" opacity="1.000000" stroke="none" 
	d="
M121.338966,223.089447 
	C122.644913,222.957199 124.269943,223.015091 125.980835,223.401535 
	C124.597145,223.579926 123.127594,223.429764 121.338966,223.089447 
z"/>
<path fill="#CACAC8" opacity="1.000000" stroke="none" 
	d="
M135.647659,19.161087 
	C134.391327,19.514181 132.717041,19.753178 130.986481,19.639305 
	C132.363373,19.206623 133.796539,19.126806 135.647659,19.161087 
z"/>
<path fill="#CACAC8" opacity="1.000000" stroke="none" 
	d="
M82.658188,33.009949 
	C81.592796,34.047405 80.186256,35.095139 78.417236,36.090317 
	C79.475525,35.031918 80.896271,34.026073 82.658188,33.009949 
z"/>
<path fill="#E1E2E1" opacity="1.000000" stroke="none" 
	d="
M146.685135,186.158386 
	C145.828949,186.706314 144.626968,187.158859 143.224777,187.344284 
	C144.129501,186.739120 145.234421,186.401062 146.685135,186.158386 
z"/>
<path fill="#CACAC8" opacity="1.000000" stroke="none" 
	d="
M62.362694,194.186218 
	C63.538254,194.691177 64.770569,195.508926 65.996918,196.669693 
	C64.800453,196.174835 63.609951,195.336929 62.362694,194.186218 
z"/>
<path fill="#CACAC8" opacity="1.000000" stroke="none" 
	d="
M56.999771,188.335327 
	C58.041763,188.998062 59.118164,189.978088 60.168839,191.303070 
	C59.106800,190.649536 58.070488,189.651077 56.999771,188.335327 
z"/>
<path fill="#CACAC8" opacity="1.000000" stroke="none" 
	d="
M55.805511,55.330856 
	C55.295609,56.505089 54.476048,57.747238 53.309563,58.984764 
	C53.807049,57.786350 54.651451,56.592564 55.805511,55.330856 
z"/>
<path fill="#DEDEDC" opacity="1.000000" stroke="none" 
	d="
M175.131042,69.290894 
	C176.343704,69.738617 177.662994,70.492363 178.999969,71.601807 
	C177.757675,71.170639 176.497650,70.383774 175.131042,69.290894 
z"/>
<path fill="#E1E2E1" opacity="1.000000" stroke="none" 
	d="
M188.704483,159.121246 
	C188.251099,160.338333 187.489487,161.656189 186.369797,162.989441 
	C186.806580,161.743896 187.601410,160.482956 188.704483,159.121246 
z"/>
<path fill="#CACAC8" opacity="1.000000" stroke="none" 
	d="
M199.334869,73.009445 
	C200.070419,71.961212 201.139053,70.919792 202.567474,69.915421 
	C201.840820,70.973732 200.754395,71.995003 199.334869,73.009445 
z"/>
<path fill="#BABABA" opacity="1.000000" stroke="none" 
	d="
M144.625732,110.964523 
	C144.184753,111.931419 143.424850,112.951881 142.323700,113.979431 
	C142.757233,112.997032 143.532013,112.007553 144.625732,110.964523 
z"/>
<path fill="#CACAC8" opacity="1.000000" stroke="none" 
	d="
M115.259613,222.159119 
	C115.995346,221.998123 116.977760,222.060211 118.013977,222.423950 
	C117.213959,222.611130 116.360130,222.496674 115.259613,222.159119 
z"/>
<path fill="#CACAC8" opacity="1.000000" stroke="none" 
	d="
M74.685211,37.999123 
	C74.253448,38.715103 73.497108,39.414940 72.390335,40.071182 
	C72.813469,39.346054 73.587051,38.664513 74.685211,37.999123 
z"/>
<path fill="#CACAC8" opacity="1.000000" stroke="none" 
	d="
M196.226044,74.697853 
	C196.719742,74.040215 197.525818,73.445175 198.667267,72.926086 
	C198.181244,73.588181 197.359818,74.174316 196.226044,74.697853 
z"/>
<path fill="#CACAC8" opacity="1.000000" stroke="none" 
	d="
M77.713615,36.057526 
	C77.262253,36.749168 76.490395,37.443798 75.367134,38.074928 
	C75.808189,37.361126 76.600647,36.710819 77.713615,36.057526 
z"/>
<path fill="#CACAC8" opacity="1.000000" stroke="none" 
	d="
M45.176964,172.237122 
	C45.841190,172.691864 46.495487,173.461945 47.106236,174.568268 
	C46.430805,174.120499 45.798920,173.336472 45.176964,172.237122 
z"/>
<path fill="#CACAC8" opacity="1.000000" stroke="none" 
	d="
M79.109543,207.296692 
	C79.989563,207.402954 80.967476,207.814407 81.993790,208.567047 
	C81.097275,208.472778 80.152351,208.037338 79.109543,207.296692 
z"/>
<path fill="#DEDEDC" opacity="1.000000" stroke="none" 
	d="
M83.929504,162.728241 
	C83.331848,162.453568 82.731987,161.879089 82.274887,160.970367 
	C82.920860,161.233551 83.424088,161.830978 83.929504,162.728241 
z"/>
<path fill="#CACAC8" opacity="1.000000" stroke="none" 
	d="
M159.805573,21.810993 
	C159.313278,21.985512 158.635803,21.925385 157.941605,21.585869 
	C158.490067,21.396433 159.055222,21.486389 159.805573,21.810993 
z"/>
<path fill="#CACAC8" opacity="1.000000" stroke="none" 
	d="
M184.235718,75.020950 
	C184.727875,74.846588 185.417328,74.892830 186.111267,75.210159 
	C185.554825,75.401344 184.993942,75.321442 184.235718,75.020950 
z"/>
<path fill="#CACAC8" opacity="1.000000" stroke="none" 
	d="
M208.966217,55.770496 
	C208.451874,55.931049 208.067917,55.819946 207.683945,55.708839 
	C207.894928,55.449848 208.105927,55.190857 208.575317,54.944210 
	C208.921341,55.137314 209.008957,55.318077 208.966217,55.770496 
z"/>
<path fill="#79797A" opacity="1.000000" stroke="none" 
	d="
M208.810364,187.669128 
	C208.088150,188.352966 207.408829,188.620438 207.124023,189.115067 
	C204.466080,193.731445 203.094437,193.983780 199.016647,190.512268 
	C198.028183,189.670746 197.020676,188.851639 195.644699,187.876831 
	C195.854950,184.429810 196.442429,181.128189 197.209824,177.299591 
	C197.578705,176.521774 197.756317,176.263138 197.922577,175.996704 
	C201.987701,177.632645 206.052826,179.268585 210.469208,180.951828 
	C210.225708,183.118805 209.630981,185.238480 208.810364,187.669128 
z"/>
<path fill="#F9FAF8" opacity="1.000000" stroke="none" 
	d="
M33.286743,122.960709 
	C32.941254,118.311256 32.960564,113.625832 33.018410,108.477303 
	C37.336121,111.831459 37.651180,119.732216 33.286743,122.960709 
z"/>
<path fill="#F9FAF5" opacity="1.000000" stroke="none" 
	d="
M87.230957,32.922527 
	C89.934608,31.264563 93.088150,29.644958 96.601501,27.967560 
	C96.502586,34.434326 91.514252,32.636616 87.230957,32.922527 
z"/>
<path fill="#8B8B8C" opacity="1.000000" stroke="none" 
	d="
M183.788177,204.272125 
	C183.307983,208.012741 183.363586,212.532120 177.062103,211.849274 
	C178.910629,209.281891 181.182724,206.790985 183.788177,204.272125 
z"/>
<path fill="#FAFAF5" opacity="1.000000" stroke="none" 
	d="
M170.090164,27.181812 
	C172.517700,27.745422 174.949371,28.687384 177.691223,29.789606 
	C175.932236,32.240528 173.159134,31.402439 170.090164,27.181812 
z"/>
<path fill="#818281" opacity="1.000000" stroke="none" 
	d="
M196.889191,165.380325 
	C201.939148,166.784912 202.361298,168.337097 198.352966,171.603531 
	C197.579330,170.208435 197.255844,169.113358 196.932358,168.018295 
	C196.905457,167.264343 196.878555,166.510406 196.889191,165.380325 
z"/>
<path fill="#E1E2E1" opacity="1.000000" stroke="none" 
	d="
M196.661362,168.300980 
	C197.255844,169.113358 197.579330,170.208435 197.986115,171.654495 
	C197.992599,173.070023 197.915771,174.134567 197.880768,175.597900 
	C197.756317,176.263138 197.578705,176.521774 197.181580,176.882019 
	C196.779068,174.188843 196.584717,171.386261 196.661362,168.300980 
z"/>
<path fill="#8B8B8C" opacity="1.000000" stroke="none" 
	d="
M191.000610,197.657303 
	C190.591400,198.042908 190.186172,198.069534 189.476746,198.089264 
	C189.603485,197.172897 190.034454,196.263458 190.770264,195.252411 
	C191.051605,195.866653 191.028107,196.582504 191.000610,197.657303 
z"/>
<path fill="#8B8B8C" opacity="1.000000" stroke="none" 
	d="
M191.858124,193.167648 
	C191.998627,193.695892 191.841248,194.329895 191.411865,195.011932 
	C191.279999,194.464447 191.420105,193.868927 191.858124,193.167648 
z"/>
<path fill="#818281" opacity="1.000000" stroke="none" 
	d="
M211.848877,178.656967 
	C208.279861,176.722931 208.199203,174.703796 212.510284,172.999634 
	C212.581299,174.762711 212.300552,176.534439 211.848877,178.656967 
z"/>
<path fill="#BABABA" opacity="1.000000" stroke="none" 
	d="
M202.915298,143.687576 
	C201.413055,143.217880 199.855927,142.406937 198.147614,141.300476 
	C199.617737,141.785431 201.239075,142.565872 202.915298,143.687576 
z"/>
<path fill="#BABABA" opacity="1.000000" stroke="none" 
	d="
M207.863983,148.790039 
	C207.261536,148.612122 206.664551,148.109833 206.041382,147.296112 
	C206.633286,147.478333 207.251373,147.972015 207.863983,148.790039 
z"/>
<path fill="#D2D2D1" opacity="1.000000" stroke="none" 
	d="
M211.612000,155.131973 
	C211.043716,154.799835 210.609482,154.145935 210.226501,153.188232 
	C210.767197,153.526352 211.256622,154.168289 211.612000,155.131973 
z"/>
</svg>